<svg xmlns="http://www.w3.org/2000/svg" viewBox="0 0 32 32" fill="none">
  <!-- Breaking Dynamics Favicon - Stylized B with dynamic arrow -->
  <defs>
    <linearGradient id="bd-grad" x1="0%" y1="0%" x2="100%" y2="100%">
      <stop offset="0%" stop-color="#FF6B35"/>
      <stop offset="100%" stop-color="#FF8C5A"/>
    </linearGradient>
  </defs>

  <!-- Rounded background -->
  <rect width="32" height="32" rx="8" fill="#0A0A0B"/>

  <!-- Main B shape -->
  <path
    d="M6 6 L6 26 L14 26 C17 26 20 24 20 21 C20 18.5 18.5 17 16 16.5 C18 16 19.5 14 19.5 12 C19.5 9 17 7 14 7 L6 7 Z
       M9 9 L13 9 C15 9 16.5 10 16.5 12 C16.5 14 15 15 13 15 L9 15 L9 9 Z
       M9 17 L14 17 C16 17 17.5 18 17.5 20.5 C17.5 23 16 24 14 24 L9 24 L9 17 Z"
    fill="url(#bd-grad)"
    fill-rule="evenodd"
  />

  <!-- Dynamic breakthrough arrow -->
  <path
    d="M17 14 L26 9 L26 12.5 L21 16 L26 19.5 L26 23 L17 18 L17 14 Z"
    fill="#FF6B35"
  />

  <!-- Energy spark -->
  <circle cx="25" cy="7" r="1.5" fill="#FF8C5A"/>
</svg>
